<svg xmlns="http://www.w3.org/2000/svg" width="102" height="102" viewBox="0 0 102 102">
  <g id="Group_1653" data-name="Group 1653" transform="translate(-624 -240)">
    <g id="Group_1621" data-name="Group 1621" transform="translate(623.606 239.606)">
      <circle id="Ellipse_165" data-name="Ellipse 165" cx="51" cy="51" r="51" transform="translate(0.394 0.394)" fill="#c7ffcb"/>
    </g>
    <g id="Group_1614" data-name="Group 1614" transform="translate(651.016 263.59)">
      <g id="Group_1619" data-name="Group 1619" transform="translate(0 0)">
        <path id="Stroke_1" data-name="Stroke 1" d="M15.092-.75h16.13a13.122,13.122,0,0,1,9.905,4.033,14.5,14.5,0,0,1,3.641,10.111l2.3,19.528a14.5,14.5,0,0,1-3.641,10.111,13.125,13.125,0,0,1-9.907,4.033H12.794a13.119,13.119,0,0,1-9.905-4.033A14.5,14.5,0,0,1-.75,32.922l2.3-19.528A14.49,14.49,0,0,1,5.2,3.282,13.117,13.117,0,0,1,15.092-.75ZM33.517,43.48c6.052,0,9.962-4.144,9.962-10.558l-2.3-19.528c0-6.414-3.91-10.558-9.96-10.558H15.092c-6.049,0-9.958,4.144-9.958,10.558l-2.3,19.528c0,6.414,3.909,10.558,9.958,10.558Z" transform="translate(0.75 9.382)" fill="#45b64d"/>
        <path id="Path_574" data-name="Path 574" d="M5.977,3.985a1.992,1.992,0,0,0,0,3.985H9.962a1.992,1.992,0,1,0,0-3.985H5.977M5.977,0H9.962a5.977,5.977,0,0,1,0,11.954H5.977A5.977,5.977,0,0,1,5.977,0Z" transform="translate(15.892)" fill="#45b64d"/>
      </g>
      <path id="Path_573" data-name="Path 573" d="M7131.605,5871.984l-4.839-4.844a1.5,1.5,0,1,1,2.122-2.12l2.718,2.72,8.257-8.262a1.5,1.5,0,0,1,2.122,2.121Z" transform="translate(-7110.959 -5833.337)" fill="#45b64d"/>
    </g>
  </g>
</svg>
