<svg xmlns="http://www.w3.org/2000/svg" width="141.715" height="114.501" viewBox="0 0 141.715 114.501">
    <g id="Group_887" data-name="Group 887" transform="translate(-23.004 -1.82)">
        <g id="Group_798" data-name="Group 798">
            <path id="Path_506" data-name="Path 506"
                  d="M57.05,0C88.557,0,114.1,2.709,114.1,6.052S88.557,12.1,57.05,12.1,0,9.394,0,6.052,25.542,0,57.05,0Z"
                  transform="translate(37.274 104.217)" fill="#b1cee0" opacity="0.48"/>
            <g id="Group_1492" data-name="Group 1492" transform="translate(0 8.224)" opacity="0.22">
                <path id="Intersection_16" data-name="Intersection 16"
                      d="M5881.7,9720.224a12.946,12.946,0,0,1-9.778-3.98,14.314,14.314,0,0,1-3.592-9.983v-19.28a14.312,14.312,0,0,1,3.6-9.985,12.95,12.95,0,0,1,9.768-3.98h20.566l-1.572,40.289,3.667,6.772a15.977,15.977,0,0,1-2.2.148Z"
                      transform="translate(-5845.324 -9658.936)" fill="#598fb1"/>
            </g>
            <g id="Group_1491" data-name="Group 1491" transform="translate(121.608 8.224)" opacity="0.31">
                <path id="Intersection_15" data-name="Intersection 15"
                      d="M5735.089,9720.224a14.219,14.219,0,0,1-6.017-1.251c.739-1.86,2.027-6,2.747-13.528a136.547,136.547,0,0,0,.588-14.574c-.094-10.922.305-15.716.749-17.742a16.018,16.018,0,0,1,1.933-.114h20.462a12.959,12.959,0,0,1,9.78,3.98,14.322,14.322,0,0,1,3.595,9.985v19.28a14.314,14.314,0,0,1-3.595,9.983,12.953,12.953,0,0,1-9.783,3.98Z"
                      transform="translate(-5725.814 -9658.936)" fill="#598fb1"/>
            </g>
            <g id="Group_1547" data-name="Group 1547" transform="translate(55.545 4.57)">
                <path id="Union_32" data-name="Union 32"
                      d="M21.545,74.157H19.7C7.555,74.157,0,65.582,0,53.449V20.71C0,8.576,7.592,0,19.7,0H54.452C66.6,0,74.16,8.576,74.16,20.71V53.449c0,12.133-7.561,20.708-19.708,20.708H38.584l-8.52,8.518Z"
                      transform="translate(0)" fill="rgba(0,0,0,0)"/>
                <path id="Union_32_-_Outline" data-name="Union 32 - Outline"
                      d="M30.064,85.424a2.741,2.741,0,0,1-1.944-.805l-7.713-7.712h-.7C6.273,76.907-2.75,67.48-2.75,53.449V20.71C-2.75,6.678,6.273-2.75,19.7-2.75H54.452c13.433,0,22.458,9.428,22.458,23.46V53.449c0,14.031-9.025,23.458-22.458,23.458H39.723l-7.715,7.713A2.742,2.742,0,0,1,30.064,85.424ZM19.7,2.75C9.4,2.75,2.75,9.8,2.75,20.71V53.449C2.75,64.358,9.4,71.407,19.7,71.407h1.843a2.75,2.75,0,0,1,1.944.805l6.575,6.574,6.576-6.574a2.75,2.75,0,0,1,1.944-.805H54.452c10.3,0,16.958-7.049,16.958-17.958V20.71c0-10.91-6.656-17.96-16.958-17.96Z"
                      transform="translate(0)" fill="#598fb1"/>
                <path id="Fill_3" data-name="Fill 3" d="M4.8,9.6A4.8,4.8,0,1,1,9.6,4.8,4.8,4.8,0,0,1,4.8,9.6"
                      transform="translate(14.32 32.278)" fill="#598fb1"/>
                <path id="Fill_5" data-name="Fill 5" d="M4.8,9.6A4.8,4.8,0,1,1,9.6,4.8,4.8,4.8,0,0,1,4.8,9.6"
                      transform="translate(32.277 32.278)" fill="#598fb1"/>
                <path id="Fill_7" data-name="Fill 7" d="M4.8,9.6A4.8,4.8,0,1,1,9.6,4.8,4.8,4.8,0,0,1,4.8,9.6"
                      transform="translate(50.231 32.278)" fill="#598fb1"/>
            </g>
        </g>
    </g>
</svg>
