<svg xmlns="http://www.w3.org/2000/svg" width="14.28" height="15.469" viewBox="0 0 14.28 15.469">
  <g id="Delete" transform="translate(0 -0.001)">
    <path id="Stroke_1" data-name="Stroke 1" d="M5.326,9.533c-1.049,0-2.073-.01-3.066-.031A2.306,2.306,0,0,1-.085,7.3C-.328,5.111-.744-.057-.748-.109A.594.594,0,0,1-.2-.748.594.594,0,0,1,.435-.2c0,.052.419,5.2.66,7.378A1.124,1.124,0,0,0,2.285,8.315c1.906.04,3.932.041,6.022,0a1.141,1.141,0,0,0,1.241-1.15c.239-2.157.657-7.321.661-7.373a.594.594,0,0,1,.639-.544.594.594,0,0,1,.544.639c0,.052-.423,5.234-.664,7.408a2.31,2.31,0,0,1-2.4,2.206C7.31,9.524,6.307,9.533,5.326,9.533Z" transform="translate(1.819 5.937)" fill="#8698ad"/>
    <path id="Stroke_3" data-name="Stroke 3" d="M12.936.937H-.156A.594.594,0,0,1-.75.344.594.594,0,0,1-.156-.25H12.936a.594.594,0,1,1,0,1.187Z" transform="translate(0.75 2.944)" fill="#8698ad"/>
    <path id="Stroke_5" data-name="Stroke 5" d="M7.891,3.131a1.87,1.87,0,0,1-1.829-1.5L5.879.715A.4.4,0,0,0,5.5.437H2.233a.4.4,0,0,0-.378.278l-.183.916a1.871,1.871,0,0,1-1.829,1.5A.594.594,0,0,1-.75,2.537a.594.594,0,0,1,.594-.594A.68.68,0,0,0,.508,1.4L.7.46Q.7.441.7.423A1.584,1.584,0,0,1,2.233-.75H5.5A1.584,1.584,0,0,1,7.03.423q0,.018.009.037l.188.939a.68.68,0,0,0,.665.545.594.594,0,0,1,0,1.187Z" transform="translate(3.273 0.751)" fill="#8698ad"/>
  </g>
</svg>
