<svg xmlns="http://www.w3.org/2000/svg" width="15.184" height="17.809" viewBox="0 0 15.184 17.809">
  <g id="Group_1536" data-name="Group 1536" transform="translate(-537.298 -613.372)">
    <g id="Location" transform="translate(537.298 613.372)">
      <path id="Path_33958" d="M6.842-.75h.026a7.6,7.6,0,0,1,7.566,7.618v.076s0,.009,0,.013a10.955,10.955,0,0,1-3.318,7.024l0,0a18.88,18.88,0,0,1-3.321,2.74,1.514,1.514,0,0,1-1.9,0,18.469,18.469,0,0,1-4.688-4.4A9.474,9.474,0,0,1-.75,6.865q0-.012,0-.023V6.819A7.592,7.592,0,0,1,6.842-.75Zm6.241,7.687V6.866A6.249,6.249,0,0,0,6.863.6H6.842A6.252,6.252,0,0,0,.6,6.821V6.83a8.131,8.131,0,0,0,1.678,4.677l0,.006a17.123,17.123,0,0,0,4.379,4.1.675.675,0,0,1,.073.055.163.163,0,0,0,.213,0,.675.675,0,0,1,.076-.057,17.53,17.53,0,0,0,3.113-2.563A9.654,9.654,0,0,0,13.083,6.937Z" transform="translate(0.75 0.75)" fill="#598fb1"/>
      <path id="Ellipse_740" d="M2.5-.75A3.251,3.251,0,1,1-.75,2.5,3.254,3.254,0,0,1,2.5-.75Zm0,4.983A1.732,1.732,0,1,0,.769,2.5,1.734,1.734,0,0,0,2.5,4.233Z" transform="translate(5.091 5.273)" fill="#598fb1"/>
    </g>
  </g>
</svg>
