<svg xmlns="http://www.w3.org/2000/svg" xmlns:xlink="http://www.w3.org/1999/xlink" width="44px" height="44px" viewBox="0 0 44 44" version="1.1">
    <g id="surface1">
        <path style=" stroke:none;fill-rule:nonzero;fill:rgb(85.098039%,92.156863%,96.470588%);fill-opacity:1;" d="M 43.691406 22.121094 C 43.691406 10.097656 33.945312 0.351562 21.921875 0.351562 C 9.898438 0.351562 0.152344 10.097656 0.152344 22.121094 C 0.152344 34.144531 9.898438 43.890625 21.921875 43.890625 C 33.945312 43.890625 43.691406 34.144531 43.691406 22.121094 Z M 43.691406 22.121094 "/>
        <path style="stroke:none;fill-rule:nonzero;fill: rgb(89, 143, 177);fill-opacity:1;" d="M 30.480469 13.523438 L 13.441406 13.523438 C 12.097656 13.523438 11.003906 14.621094 11.003906 15.964844 L 11.003906 26.78125 C 11.003906 28.089844 12.097656 29.183594 13.441406 29.183594 L 27.195312 29.183594 L 30.199219 30.667969 L 31.683594 31.410156 L 31.683594 28.867188 C 32.425781 28.441406 32.921875 27.664062 32.921875 26.78125 L 32.921875 15.964844 C 32.921875 14.621094 31.824219 13.523438 30.480469 13.523438 Z M 31.894531 26.746094 C 31.894531 27.453125 31.363281 28.054688 30.65625 28.125 L 30.65625 29.75 L 27.441406 28.160156 L 13.441406 28.160156 C 12.664062 28.160156 12.0625 27.523438 12.0625 26.78125 L 12.0625 15.964844 C 12.0625 15.183594 12.699219 14.585938 13.441406 14.585938 L 30.515625 14.585938 C 31.292969 14.585938 31.894531 15.222656 31.894531 15.964844 Z M 31.894531 26.746094 "/>
        <path style="stroke:none;fill-rule:nonzero;fill: rgb(89, 143, 177);fill-opacity:1;" d="M 31.683594 28.867188 C 31.71875 28.867188 31.71875 28.832031 31.683594 28.867188 L 30.65625 28.160156 L 30.65625 29.785156 L 31.683594 31.445312 Z M 31.683594 28.867188 "/>
        <path style="stroke:none;fill-rule:nonzero;fill: rgb(89, 143, 177);fill-opacity:1;" d="M 27.15625 29.183594 L 27.40625 28.160156 L 13.441406 28.160156 C 12.804688 28.160156 12.273438 27.734375 12.097656 27.132812 C 12.3125 28.019531 12.839844 28.691406 13.617188 29.183594 Z M 27.15625 29.183594 "/>
        <path style="stroke:none;fill-rule:nonzero;fill: rgb(89, 143, 177);fill-opacity:1;" d="M 18.425781 23.140625 C 18.425781 23.511719 18.125 23.8125 17.753906 23.8125 C 17.382812 23.8125 17.082031 23.511719 17.082031 23.140625 C 17.082031 22.769531 17.382812 22.46875 17.753906 22.46875 C 18.125 22.46875 18.425781 22.769531 18.425781 23.140625 Z M 18.425781 23.140625 "/>
        <path style="stroke:none;fill-rule:nonzero;fill: rgb(89, 143, 177);fill-opacity:1;" d="M 22.632812 23.140625 C 22.632812 23.511719 22.332031 23.8125 21.960938 23.8125 C 21.589844 23.8125 21.289062 23.511719 21.289062 23.140625 C 21.289062 22.769531 21.589844 22.46875 21.960938 22.46875 C 22.332031 22.46875 22.632812 22.769531 22.632812 23.140625 Z M 22.632812 23.140625 "/>
        <path style="stroke:none;fill-rule:nonzero;fill: rgb(89, 143, 177);fill-opacity:1;" d="M 26.839844 23.140625 C 26.839844 23.511719 26.539062 23.8125 26.167969 23.8125 C 25.796875 23.8125 25.496094 23.511719 25.496094 23.140625 C 25.496094 22.769531 25.796875 22.46875 26.167969 22.46875 C 26.539062 22.46875 26.839844 22.769531 26.839844 23.140625 Z M 26.839844 23.140625 "/>
        <path style="stroke:none;fill-rule:nonzero;fill: rgb(89, 143, 177);fill-opacity:1;" d="M 18.285156 17.164062 C 18.285156 19.175781 16.65625 20.804688 14.644531 20.804688 C 12.632812 20.804688 11.003906 19.175781 11.003906 17.164062 C 11.003906 15.152344 12.632812 13.523438 14.644531 13.523438 C 16.65625 13.523438 18.285156 15.152344 18.285156 17.164062 Z M 18.285156 17.164062 "/>
        <path style="stroke:none;fill-rule:nonzero;fill: rgb(89, 143, 177);fill-opacity:1;" d="M 17.1875 14.585938 C 18.601562 16 18.601562 18.296875 17.1875 19.710938 C 15.773438 21.125 13.476562 21.125 12.0625 19.710938 "/>
        <path style=" stroke:none;fill-rule:nonzero;fill:rgb(100%,100%,100%);fill-opacity:1;" d="M 14.644531 18.933594 C 14.539062 18.933594 14.46875 18.863281 14.46875 18.757812 L 14.46875 15.574219 C 14.46875 15.46875 14.539062 15.398438 14.644531 15.398438 C 14.75 15.398438 14.820312 15.46875 14.820312 15.574219 L 14.820312 18.757812 C 14.820312 18.863281 14.714844 18.933594 14.644531 18.933594 Z M 14.644531 18.933594 "/>
        <path style=" stroke:none;fill-rule:nonzero;fill:rgb(100%,100%,100%);fill-opacity:1;" d="M 16.234375 17.34375 L 13.054688 17.34375 C 12.945312 17.34375 12.875 17.269531 12.875 17.164062 C 12.875 17.058594 12.945312 16.988281 13.054688 16.988281 L 16.234375 16.988281 C 16.339844 16.988281 16.410156 17.058594 16.410156 17.164062 C 16.410156 17.269531 16.304688 17.34375 16.234375 17.34375 Z M 16.234375 17.34375 "/>
    </g>
</svg>
