<svg xmlns="http://www.w3.org/2000/svg" width="20.165" height="12.184" viewBox="0 0 20.165 12.184">
  <g id="Category" transform="translate(0.75 3.75)">
    <path id="Stroke_1" data-name="Stroke 1" d="M2.285-3.75H5.334A3.048,3.048,0,0,1,8.368-.695V5.379A3.048,3.048,0,0,1,5.334,8.434H2.285A3.049,3.049,0,0,1-.75,5.379V-.695A3.049,3.049,0,0,1,2.285-3.75ZM5.334,6.934A1.547,1.547,0,0,0,6.868,5.379V-.695A1.547,1.547,0,0,0,5.334-2.25H2.285A1.547,1.547,0,0,0,.75-.695V5.379A1.547,1.547,0,0,0,2.285,6.934Z" transform="translate(11.046 0)" fill="#fff"/>
    <path id="Stroke_3" data-name="Stroke 3" d="M2.285-3.75H5.333A3.049,3.049,0,0,1,8.368-.695V5.379A3.049,3.049,0,0,1,5.333,8.434H2.285A3.049,3.049,0,0,1-.75,5.379V-.695A3.049,3.049,0,0,1,2.285-3.75ZM5.333,6.934A1.547,1.547,0,0,0,6.868,5.379V-.695A1.547,1.547,0,0,0,5.333-2.25H2.285A1.547,1.547,0,0,0,.75-.695V5.379A1.547,1.547,0,0,0,2.285,6.934Z" transform="translate(0 0)" fill="#fff"/>
  </g>
</svg>
