<svg xmlns="http://www.w3.org/2000/svg" width="110" height="110" viewBox="0 0 110 110">
  <g id="Group_1639" data-name="Group 1639" transform="translate(-746 -248)">
    <path id="Ellipse_167" data-name="Ellipse 167" d="M55,1a53.743,53.743,0,0,0-30.191,9.222A54.161,54.161,0,0,0,5.243,33.981a53.928,53.928,0,0,0,4.979,51.21,54.161,54.161,0,0,0,23.759,19.566,53.928,53.928,0,0,0,51.21-4.979,54.161,54.161,0,0,0,19.566-23.759,53.928,53.928,0,0,0-4.979-51.21A54.161,54.161,0,0,0,76.019,5.243,53.661,53.661,0,0,0,55,1m0-1A55,55,0,1,1,0,55,55,55,0,0,1,55,0Z" transform="translate(746 248)" fill="#c7ffcb"/>
    <circle id="Ellipse_168" data-name="Ellipse 168" cx="44" cy="44" r="44" transform="translate(757 259)" fill="#45b64d"/>
    <path id="Path_574" data-name="Path 574" d="M7135.67,5882.728l-9.256-9.271a2,2,0,0,1,2.83-2.826l6.427,6.437,17.933-17.942a2,2,0,0,1,2.829,2.828Z" transform="translate(-6341.329 -5567.219)" fill="#fff"/>
  </g>
</svg>
