<svg xmlns="http://www.w3.org/2000/svg" width="16.618" height="13.804" viewBox="0 0 16.618 13.804">
  <g id="Category" transform="translate(-2.024 3.2)">
    <path id="Stroke_1" data-name="Stroke 1" d="M1.215-.75H13.9a2.046,2.046,0,0,1,1.964,2.115v1.82A2.046,2.046,0,0,1,13.9,5.3H1.215A2.046,2.046,0,0,1-.75,3.185V1.365A2.046,2.046,0,0,1,1.215-.75ZM13.9,3.8c.252,0,.464-.282.464-.615V1.365c0-.333-.213-.615-.464-.615H1.215C.963.75.75,1.032.75,1.365v1.82c0,.333.213.615.465.615Z" transform="translate(2.774 5.304)" fill="#8698ad"/>
    <path id="Stroke_3" data-name="Stroke 3" d="M1.215-.75H13.9a2.046,2.046,0,0,1,1.965,2.115v1.82A2.046,2.046,0,0,1,13.9,5.3H1.215A2.046,2.046,0,0,1-.75,3.185V1.365A2.046,2.046,0,0,1,1.215-.75ZM13.9,3.8c.252,0,.465-.282.465-.615V1.365c0-.333-.213-.615-.465-.615H1.215C.963.75.75,1.032.75,1.365v1.82c0,.333.213.615.465.615Z" transform="translate(2.774 -2.45)" fill="#8698ad"/>
  </g>
</svg>
