<svg xmlns="http://www.w3.org/2000/svg" width="32" height="32" viewBox="0 0 32 32">
  <g id="Group_1649" data-name="Group 1649" transform="translate(-1170 -270)">
    <circle id="Ellipse_156" data-name="Ellipse 156" cx="16" cy="16" r="16" transform="translate(1170 270)" fill="#d9ebf6"/>
    <g id="Group_1547" data-name="Group 1547" transform="translate(1179.025 279.269)">
      <path id="Union_32" data-name="Union 32" d="M3.973,13.673h-.34A3.519,3.519,0,0,1,0,9.855V3.819A3.523,3.523,0,0,1,3.633,0H10.04a3.52,3.52,0,0,1,3.634,3.819V9.855a3.519,3.519,0,0,1-3.634,3.818H7.114L5.543,15.244Z" transform="translate(0)" fill="rgba(0,0,0,0)"/>
      <path id="Union_32_-_Outline" data-name="Union 32 - Outline" d="M5.543,15.994a.748.748,0,0,1-.53-.22L3.662,14.423H3.633A4.246,4.246,0,0,1,.428,13.114,4.674,4.674,0,0,1-.75,9.855V3.819A4.672,4.672,0,0,1,.43.559,4.246,4.246,0,0,1,3.633-.75H10.04A4.248,4.248,0,0,1,13.246.559a4.674,4.674,0,0,1,1.178,3.259V9.855a4.673,4.673,0,0,1-1.178,3.259,4.248,4.248,0,0,1-3.206,1.309H7.425L6.074,15.774A.748.748,0,0,1,5.543,15.994ZM3.633.75A2.764,2.764,0,0,0,.75,3.819V9.855a2.764,2.764,0,0,0,2.883,3.068h.34a.75.75,0,0,1,.53.22l1.04,1.04,1.041-1.04a.75.75,0,0,1,.53-.22H10.04a2.765,2.765,0,0,0,2.884-3.068V3.819A2.765,2.765,0,0,0,10.04.75Z" transform="translate(0)" fill="#598fb1"/>
      <path id="Fill_3" data-name="Fill 3" d="M.885,1.77A.885.885,0,1,1,1.771.885a.886.886,0,0,1-.885.885" transform="translate(2.64 5.951)" fill="#598fb1"/>
      <path id="Fill_5" data-name="Fill 5" d="M.885,1.77A.885.885,0,1,1,1.771.885a.886.886,0,0,1-.885.885" transform="translate(5.951 5.951)" fill="#598fb1"/>
      <path id="Fill_7" data-name="Fill 7" d="M.885,1.77A.885.885,0,1,1,1.771.885a.886.886,0,0,1-.885.885" transform="translate(9.262 5.951)" fill="#598fb1"/>
    </g>
  </g>
</svg>
