<svg xmlns="http://www.w3.org/2000/svg" width="264.427" height="38.002" viewBox="0 0 264.427 38.002">
  <g id="Group_1640" data-name="Group 1640" transform="translate(-61.5 -76)">
    <path id="Path_574" data-name="Path 574" d="M8.405-4.428h9.717V0H2.624V-28.946H8.405ZM32.062-23a12.6,12.6,0,0,1,5.965,1.394,10.2,10.2,0,0,1,4.161,4.038,12.269,12.269,0,0,1,1.517,6.212,12.155,12.155,0,0,1-1.517,6.191,10.377,10.377,0,0,1-4.161,4.038A12.447,12.447,0,0,1,32.062.287,12.447,12.447,0,0,1,26.1-1.128a10.377,10.377,0,0,1-4.161-4.038,12.155,12.155,0,0,1-1.517-6.191,12.269,12.269,0,0,1,1.517-6.212A10.2,10.2,0,0,1,26.1-21.607,12.6,12.6,0,0,1,32.062-23Zm0,5a5.545,5.545,0,0,0-4.1,1.7,6.74,6.74,0,0,0-1.681,4.941,6.74,6.74,0,0,0,1.681,4.94,5.545,5.545,0,0,0,4.1,1.7,5.545,5.545,0,0,0,4.1-1.7,6.74,6.74,0,0,0,1.681-4.94A6.74,6.74,0,0,0,36.162-16.3,5.545,5.545,0,0,0,32.062-18ZM56.7-23a8.729,8.729,0,0,1,4.92,1.353A7.369,7.369,0,0,1,64.534-18v-4.715h5.74V0h-5.74V-4.756a7.478,7.478,0,0,1-2.911,3.669A8.632,8.632,0,0,1,56.7.287a9.757,9.757,0,0,1-5.166-1.394A9.418,9.418,0,0,1,47.95-5.146a14.005,14.005,0,0,1-1.292-6.212,14.005,14.005,0,0,1,1.292-6.212,9.418,9.418,0,0,1,3.587-4.038A9.757,9.757,0,0,1,56.7-23Zm1.8,5.043a5.654,5.654,0,0,0-4.346,1.763,6.825,6.825,0,0,0-1.64,4.838,6.75,6.75,0,0,0,1.64,4.818A5.688,5.688,0,0,0,58.507-4.8a5.72,5.72,0,0,0,4.326-1.783,6.632,6.632,0,0,0,1.7-4.777,6.69,6.69,0,0,0-1.7-4.818A5.72,5.72,0,0,0,58.507-17.958ZM84.419-23a8.63,8.63,0,0,1,4.9,1.353A7.638,7.638,0,0,1,92.25-18V-30.34h5.74V0H92.25V-4.756a7.754,7.754,0,0,1-2.931,3.669,8.534,8.534,0,0,1-4.9,1.374,9.757,9.757,0,0,1-5.166-1.394,9.418,9.418,0,0,1-3.588-4.039,14.005,14.005,0,0,1-1.292-6.212,14.005,14.005,0,0,1,1.292-6.212,9.418,9.418,0,0,1,3.588-4.038A9.757,9.757,0,0,1,84.419-23Zm1.8,5.043a5.654,5.654,0,0,0-4.346,1.763,6.825,6.825,0,0,0-1.64,4.838,6.75,6.75,0,0,0,1.64,4.818A5.688,5.688,0,0,0,86.223-4.8a5.72,5.72,0,0,0,4.326-1.783,6.632,6.632,0,0,0,1.7-4.777,6.69,6.69,0,0,0-1.7-4.818A5.72,5.72,0,0,0,86.223-17.958Zm16.359-11.275a2.915,2.915,0,0,1,.984-2.275,3.725,3.725,0,0,1,2.583-.881,3.725,3.725,0,0,1,2.583.881,2.915,2.915,0,0,1,.984,2.275A2.869,2.869,0,0,1,108.732-27a3.725,3.725,0,0,1-2.583.882A3.725,3.725,0,0,1,103.566-27,2.869,2.869,0,0,1,102.582-29.233Zm6.437,6.519V0h-5.781V-22.714ZM122.1-23a10.018,10.018,0,0,1,6.642,2.091,9.055,9.055,0,0,1,3.116,5.576h-5.412a4.5,4.5,0,0,0-1.476-2.624,4.438,4.438,0,0,0-2.993-.984,3.44,3.44,0,0,0-2.3.7,2.347,2.347,0,0,0-.82,1.886,1.917,1.917,0,0,0,.656,1.517,4.726,4.726,0,0,0,1.64.9q.984.328,2.829.779a29.094,29.094,0,0,1,4.2,1.21,6.954,6.954,0,0,1,2.788,2.009,5.538,5.538,0,0,1,1.169,3.71,5.732,5.732,0,0,1-2.275,4.715,9.6,9.6,0,0,1-6.13,1.8A11.582,11.582,0,0,1,116.645-1.7a8.359,8.359,0,0,1-3.239-5.679h5.535a3.74,3.74,0,0,0,1.476,2.644,5.352,5.352,0,0,0,3.321.964,3.214,3.214,0,0,0,2.255-.717,2.419,2.419,0,0,0,.779-1.865,2.061,2.061,0,0,0-.676-1.6,4.567,4.567,0,0,0-1.681-.943q-1-.328-2.85-.779a32.117,32.117,0,0,1-4.12-1.168,6.579,6.579,0,0,1-2.706-1.906,5.356,5.356,0,0,1-1.127-3.608,5.907,5.907,0,0,1,2.255-4.8A9.57,9.57,0,0,1,122.1-23Zm26.486,18.04V0H145.55a8.394,8.394,0,0,1-5.842-1.845Q137.678-3.69,137.678-8v-9.84h-3.157v-4.879h3.157v-5.617h5.781v5.617h5.084v4.879h-5.084v9.922a3.2,3.2,0,0,0,.656,2.3,3.062,3.062,0,0,0,2.214.656Zm3.485-24.272a2.915,2.915,0,0,1,.984-2.275,3.725,3.725,0,0,1,2.583-.881,3.725,3.725,0,0,1,2.583.881,2.915,2.915,0,0,1,.984,2.275A2.869,2.869,0,0,1,158.219-27a3.725,3.725,0,0,1-2.583.882A3.725,3.725,0,0,1,153.053-27,2.869,2.869,0,0,1,152.069-29.233Zm6.437,6.519V0h-5.781V-22.714ZM173.963-23a11.24,11.24,0,0,1,7.318,2.378,10.389,10.389,0,0,1,3.669,6.478h-6.109a4.716,4.716,0,0,0-1.681-2.849,5.162,5.162,0,0,0-3.321-1.045,4.954,4.954,0,0,0-3.834,1.7,7.2,7.2,0,0,0-1.537,4.982,7.2,7.2,0,0,0,1.537,4.982,4.954,4.954,0,0,0,3.834,1.7,5.162,5.162,0,0,0,3.321-1.045,4.716,4.716,0,0,0,1.681-2.85h6.109a10.389,10.389,0,0,1-3.669,6.478A11.24,11.24,0,0,1,173.963.287a12.09,12.09,0,0,1-5.9-1.415,9.943,9.943,0,0,1-4.018-4.038,12.711,12.711,0,0,1-1.435-6.191,12.83,12.83,0,0,1,1.435-6.212,9.78,9.78,0,0,1,4.018-4.038A12.234,12.234,0,0,1,173.963-23Zm22.919,0a10.018,10.018,0,0,1,6.642,2.091,9.055,9.055,0,0,1,3.116,5.576h-5.412a4.5,4.5,0,0,0-1.476-2.624,4.438,4.438,0,0,0-2.993-.984,3.44,3.44,0,0,0-2.3.7,2.347,2.347,0,0,0-.82,1.886,1.917,1.917,0,0,0,.656,1.517,4.726,4.726,0,0,0,1.64.9q.984.328,2.829.779a29.093,29.093,0,0,1,4.2,1.21,6.954,6.954,0,0,1,2.788,2.009,5.538,5.538,0,0,1,1.169,3.71,5.732,5.732,0,0,1-2.275,4.715,9.6,9.6,0,0,1-6.13,1.8A11.582,11.582,0,0,1,191.429-1.7,8.359,8.359,0,0,1,188.19-7.38h5.535A3.74,3.74,0,0,0,195.2-4.736a5.352,5.352,0,0,0,3.321.964,3.214,3.214,0,0,0,2.255-.717,2.419,2.419,0,0,0,.779-1.865,2.061,2.061,0,0,0-.676-1.6A4.567,4.567,0,0,0,199.2-8.9q-1-.328-2.85-.779a32.118,32.118,0,0,1-4.12-1.168,6.579,6.579,0,0,1-2.706-1.906,5.356,5.356,0,0,1-1.128-3.608,5.907,5.907,0,0,1,2.255-4.8A9.57,9.57,0,0,1,196.882-23Z" transform="translate(119 112)" fill="#fff"/>
    <g id="Group_1627" data-name="Group 1627" transform="translate(61.5 76)">
      <rect id="Rectangle_2536" data-name="Rectangle 2536" width="10.335" height="32.296" transform="translate(32.296 27.667) rotate(90)" fill="#6ba8cf"/>
      <rect id="Rectangle_2808" data-name="Rectangle 2808" width="10.335" height="19.204" transform="translate(19.204 13.833) rotate(90)" fill="#6ba8cf"/>
      <rect id="Rectangle_2809" data-name="Rectangle 2809" width="10.335" height="12.658" transform="translate(12.658 0) rotate(90)" fill="#6ba8cf"/>
    </g>
  </g>
</svg>
