<svg xmlns="http://www.w3.org/2000/svg" width="143.715" height="133.161" viewBox="0 0 143.715 133.161">
  <g id="Group_887" data-name="Group 887" transform="translate(-23.004 16.84)">
    <g id="Group_798" data-name="Group 798">
      <path id="Path_506" data-name="Path 506" d="M57.05,0C88.557,0,114.1,2.709,114.1,6.052S88.557,12.1,57.05,12.1,0,9.394,0,6.052,25.542,0,57.05,0Z" transform="translate(40.274 104.217)" fill="#b1cee0" opacity="0.48"/>
      <g id="Group_1492" data-name="Group 1492" transform="translate(0 8.224)" opacity="0.22">
        <path id="Intersection_16" data-name="Intersection 16" d="M5881.7,9720.224a12.946,12.946,0,0,1-9.778-3.98,14.314,14.314,0,0,1-3.592-9.983v-19.28a14.312,14.312,0,0,1,3.6-9.985,12.95,12.95,0,0,1,9.768-3.98h20.566l-1.572,40.289,3.667,6.772a15.977,15.977,0,0,1-2.2.148Z" transform="translate(-5845.324 -9658.936)" fill="#598fb1"/>
      </g>
      <g id="Group_1491" data-name="Group 1491" transform="translate(123.608 8.224)" opacity="0.31">
        <path id="Intersection_15" data-name="Intersection 15" d="M5735.089,9720.224a15.563,15.563,0,0,1-3.177-.317l1.788-3.3a12.357,12.357,0,0,0,1.389.077s-.177-.647-.482-1.751l.882-1.629-1.572-40.248q.576-.041,1.172-.041h20.462a12.959,12.959,0,0,1,9.78,3.98,14.322,14.322,0,0,1,3.595,9.985v19.28a14.314,14.314,0,0,1-3.595,9.983,12.953,12.953,0,0,1-9.783,3.98Z" transform="translate(-5725.814 -9658.936)" fill="#598fb1"/>
      </g>
      <path id="Stroke_1" data-name="Stroke 1" d="M26.825-.75H54.9c7,0,12.966,2.427,17.242,7.02,4.146,4.453,6.337,10.539,6.337,17.6l4,33.992c0,7.062-2.192,13.148-6.338,17.6-4.277,4.592-10.24,7.02-17.246,7.02H22.825c-7.005,0-12.967-2.428-17.242-7.02C1.44,71.011-.75,64.925-.75,57.863l4-33.992c0-7.058,2.2-13.144,6.351-17.6C13.88,1.677,19.837-.75,26.825-.75ZM58.9,76.241c10.534,0,17.341-7.214,17.341-18.378l-4-33.992c0-11.164-6.805-18.378-17.337-18.378H26.825C16.3,5.492,9.492,12.706,9.492,23.87l-4,33.992c0,11.164,6.8,18.378,17.333,18.378Z" transform="translate(53.996 0.75)" fill="#598fb1"/>
      <path id="Rectangle_2823" data-name="Rectangle 2823" d="M11.5,5A6.5,6.5,0,1,0,18,11.5,6.507,6.507,0,0,0,11.5,5m0-5A11.5,11.5,0,1,1,0,11.5,11.5,11.5,0,0,1,11.5,0Z" transform="translate(83.377 -16.84)" fill="#598fb1"/>
    </g>
    <g id="Star" transform="translate(72.887 20.717)">
      <path id="Star-2" data-name="Star" d="M20.958-1a3.312,3.312,0,0,1,1.48.351A3.36,3.36,0,0,1,23.909.8l.013.025,4.97,10a.131.131,0,0,0,.1.075L40.106,12.5a3.279,3.279,0,0,1,2.171,1.261,3.225,3.225,0,0,1-.346,4.327l-8.056,7.79-.015.014a.051.051,0,0,0-.016.048l.005.029,1.931,11q0,.021.007.042a3.286,3.286,0,0,1-2.713,3.711l-.014,0a3.478,3.478,0,0,1-2.049-.317l-.034-.017-9.91-5.2-.021-.011a.079.079,0,0,0-.08,0l-.022.012-9.983,5.223-.016.008a3.325,3.325,0,0,1-4.415-1.35l-.018-.033a3.27,3.27,0,0,1-.335-2.067l0-.018,1.931-11a.107.107,0,0,0-.028-.091l-8.1-7.791-.018-.018A3.27,3.27,0,0,1-.1,13.487q.031-.035.065-.068l.053-.05a3.535,3.535,0,0,1,1.757-.862l.05-.008,11.112-1.6a.156.156,0,0,0,.114-.085L18.015.825A3.28,3.28,0,0,1,20.958-1Zm.136,3.255a.173.173,0,0,0-.072-.069.126.126,0,0,0-.1-.01.106.106,0,0,0-.062.055l-4.968,9.995a3.34,3.34,0,0,1-2.459,1.8l-.021,0L2.315,15.63a.36.36,0,0,0-.13.057.1.1,0,0,0-.015.054.1.1,0,0,0,.026.068l8.093,7.783.007.007a3.27,3.27,0,0,1,.941,2.912L9.307,37.5a.124.124,0,0,0,.006.059.164.164,0,0,0,.13.066.143.143,0,0,0,.063-.015L19.467,32.4a3.249,3.249,0,0,1,3.081,0l9.877,5.178a.279.279,0,0,0,.147.023.1.1,0,0,0,.081-.108l-1.923-10.96a3.206,3.206,0,0,1,.949-2.936l8.057-7.791.02-.019a.067.067,0,0,0,.008-.091.129.129,0,0,0-.086-.051l-.017,0L28.534,14.035a3.3,3.3,0,0,1-2.482-1.8Z" transform="translate(1 1)" fill="#598fb1"/>
    </g>
  </g>
</svg>
