<svg xmlns="http://www.w3.org/2000/svg" width="129.522" height="17.567" viewBox="0 0 129.522 17.567">
  <g id="Group_1526" data-name="Group 1526" transform="translate(-28 -24.238)">
    <g id="Group_619" data-name="Group 619" transform="translate(28 26.701)">
      <rect id="Rectangle_2536" data-name="Rectangle 2536" width="4.059" height="12.685" transform="translate(12.686 10.867) rotate(90)" fill="#fff"/>
      <rect id="Rectangle_2808" data-name="Rectangle 2808" width="4.059" height="7.543" transform="translate(7.543 5.434) rotate(90)" fill="#fff"/>
      <rect id="Rectangle_2809" data-name="Rectangle 2809" width="4.059" height="4.972" transform="translate(4.972 0) rotate(90)" fill="#fff"/>
    </g>
    <path id="Path_550" data-name="Path 550" d="M5-3.128H9.93V-.294H1.3v-15.3H5Zm12.289-9.39a6.789,6.789,0,0,1,3.213.746,5.472,5.472,0,0,1,2.228,2.153,6.465,6.465,0,0,1,.811,3.288,6.465,6.465,0,0,1-.811,3.288A5.472,5.472,0,0,1,20.5-.889a6.789,6.789,0,0,1-3.213.746,6.853,6.853,0,0,1-3.224-.746,5.455,5.455,0,0,1-2.239-2.153,6.465,6.465,0,0,1-.811-3.288,6.465,6.465,0,0,1,.811-3.288,5.455,5.455,0,0,1,2.239-2.153A6.853,6.853,0,0,1,17.286-12.518Zm0,3.2a2.357,2.357,0,0,0-1.785.768,3.111,3.111,0,0,0-.725,2.218A3.071,3.071,0,0,0,15.5-4.123a2.373,2.373,0,0,0,1.785.757,2.339,2.339,0,0,0,1.774-.757,3.1,3.1,0,0,0,.714-2.207,3.141,3.141,0,0,0-.714-2.218A2.324,2.324,0,0,0,17.286-9.316Zm12.765-3.2a4.37,4.37,0,0,1,2.38.627A3.772,3.772,0,0,1,33.9-10.181v-2.185H37.58V-.294H33.9V-2.479A3.772,3.772,0,0,1,32.431-.77a4.37,4.37,0,0,1-2.38.627,4.889,4.889,0,0,1-2.672-.746,5.107,5.107,0,0,1-1.861-2.153,7.461,7.461,0,0,1-.681-3.288,7.443,7.443,0,0,1,.681-3.3,5.119,5.119,0,0,1,1.861-2.142A4.889,4.889,0,0,1,30.051-12.518Zm1.19,3.245a2.492,2.492,0,0,0-1.915.779A3.053,3.053,0,0,0,28.6-6.33a3.053,3.053,0,0,0,.725,2.163,2.492,2.492,0,0,0,1.915.779,2.5,2.5,0,0,0,1.915-.8A3.015,3.015,0,0,0,33.9-6.33a3.007,3.007,0,0,0-.746-2.153A2.518,2.518,0,0,0,31.241-9.272Zm13.478-3.245a4.37,4.37,0,0,1,2.38.627,3.643,3.643,0,0,1,1.45,1.709V-16.3h3.7V-.294h-3.7V-2.479A3.643,3.643,0,0,1,47.1-.77a4.37,4.37,0,0,1-2.38.627,4.889,4.889,0,0,1-2.672-.746,5.107,5.107,0,0,1-1.861-2.153,7.461,7.461,0,0,1-.681-3.288,7.443,7.443,0,0,1,.681-3.3,5.119,5.119,0,0,1,1.861-2.142A4.889,4.889,0,0,1,44.719-12.518Zm1.19,3.245a2.492,2.492,0,0,0-1.915.779A3.053,3.053,0,0,0,43.27-6.33a3.053,3.053,0,0,0,.725,2.163,2.492,2.492,0,0,0,1.915.779,2.5,2.5,0,0,0,1.915-.8A3.015,3.015,0,0,0,48.57-6.33a3.007,3.007,0,0,0-.746-2.153A2.518,2.518,0,0,0,45.909-9.272Zm8.546-6.49a1.806,1.806,0,0,1,.606-1.4,2.286,2.286,0,0,1,1.6-.552,2.286,2.286,0,0,1,1.6.552,1.806,1.806,0,0,1,.606,1.4,1.782,1.782,0,0,1-.606,1.374,2.286,2.286,0,0,1-1.6.552,2.286,2.286,0,0,1-1.6-.552A1.782,1.782,0,0,1,54.455-15.763Zm4.046,3.4V-.294H54.8V-12.366Zm6.945-.151a5.539,5.539,0,0,1,3.667,1.147,4.982,4.982,0,0,1,1.72,3.029H67.371A1.918,1.918,0,0,0,66.689-9.5a2.07,2.07,0,0,0-1.331-.422,1.455,1.455,0,0,0-.952.27.944.944,0,0,0-.325.768.9.9,0,0,0,.595.844,9.487,9.487,0,0,0,1.871.563,18.584,18.584,0,0,1,2.272.66,3.748,3.748,0,0,1,1.536,1.093,3.019,3.019,0,0,1,.649,2.034,3.119,3.119,0,0,1-.563,1.839A3.7,3.7,0,0,1,68.82-.6a6.341,6.341,0,0,1-2.51.454,6.463,6.463,0,0,1-3.916-1.082,4.564,4.564,0,0,1-1.8-3.094h3.57a1.606,1.606,0,0,0,.66,1.19,2.484,2.484,0,0,0,1.482.411,1.38,1.38,0,0,0,.952-.292.984.984,0,0,0,.325-.768.923.923,0,0,0-.595-.9,10.939,10.939,0,0,0-1.936-.573,15.483,15.483,0,0,1-2.207-.606A3.643,3.643,0,0,1,61.356-6.9a2.923,2.923,0,0,1-.627-1.98,3.23,3.23,0,0,1,1.233-2.629A5.374,5.374,0,0,1,65.445-12.518ZM79.9-3.474v3.18H78.231a4.794,4.794,0,0,1-3.3-1.049,4.448,4.448,0,0,1-1.179-3.472V-9.251H72.13v-3.115h1.623V-15.33h3.7v2.964h2.423v3.115H77.453v4.5a1.356,1.356,0,0,0,.292,1,1.4,1.4,0,0,0,.984.281Zm1.731-12.289a1.806,1.806,0,0,1,.606-1.4,2.286,2.286,0,0,1,1.6-.552,2.286,2.286,0,0,1,1.6.552,1.806,1.806,0,0,1,.606,1.4,1.782,1.782,0,0,1-.606,1.374,2.286,2.286,0,0,1-1.6.552,2.286,2.286,0,0,1-1.6-.552A1.782,1.782,0,0,1,81.628-15.763Zm4.046,3.4V-.294h-3.7V-12.366Zm8-.151a6,6,0,0,1,3.916,1.287,5.708,5.708,0,0,1,1.99,3.537H95.669A2.066,2.066,0,0,0,94.955-8.9a2.113,2.113,0,0,0-1.363-.433,1.977,1.977,0,0,0-1.6.768,3.467,3.467,0,0,0-.627,2.239,3.467,3.467,0,0,0,.627,2.239,1.977,1.977,0,0,0,1.6.768,2.113,2.113,0,0,0,1.363-.433,2.066,2.066,0,0,0,.714-1.212h3.916a5.708,5.708,0,0,1-1.99,3.537A6,6,0,0,1,93.679-.143a6.488,6.488,0,0,1-3.148-.746,5.333,5.333,0,0,1-2.153-2.153A6.679,6.679,0,0,1,87.6-6.33a6.74,6.74,0,0,1,.768-3.3,5.264,5.264,0,0,1,2.153-2.142A6.551,6.551,0,0,1,93.679-12.518Z" transform="translate(57.936 41.948)" fill="#fff"/>
  </g>
</svg>
