<svg xmlns="http://www.w3.org/2000/svg" xmlns:xlink="http://www.w3.org/1999/xlink" width="430" height="768" viewBox="0 0 430 768">
  <defs>
    <clipPath id="clip-path">
      <rect id="Rectangle_2878" data-name="Rectangle 2878" width="430" height="768" fill="#fff"/>
    </clipPath>
    <clipPath id="clip-path-2">
      <rect id="Rectangle_2868" data-name="Rectangle 2868" width="430" height="761" transform="translate(0 0.049)" fill="#fff"/>
    </clipPath>
    <linearGradient id="linear-gradient" x1="0.5" x2="0.5" y2="1" gradientUnits="objectBoundingBox">
      <stop offset="0" stop-color="#161e3c" stop-opacity="0.388"/>
      <stop offset="0.455" stop-color="#161e3c" stop-opacity="0.98"/>
      <stop offset="1" stop-color="#161e3c"/>
    </linearGradient>
  </defs>
  <g id="Mask_Group_54" data-name="Mask Group 54" clip-path="url(#clip-path)">
    <g id="Group_1611" data-name="Group 1611" transform="translate(1 -2.427)">
      <g id="Group_374" data-name="Group 374" transform="translate(-1 -88.996)">
        <g id="Path_570" data-name="Path 570" transform="translate(0 92.374)" fill="#161e3c">
          <path d="M 429.21337890625 766.5487670898438 L 0.4999894499778748 766.5487670898438 L 0.4999894499778748 0.499983549118042 L 429.21337890625 0.499983549118042 L 429.21337890625 766.5487670898438 Z" stroke="none"/>
          <path d="M 1 1 L 1 766.0487670898438 L 428.71337890625 766.0487670898438 L 428.71337890625 1 L 1 1 M 0 0 L 429.71337890625 0 L 429.71337890625 767.0487670898438 L 0 767.0487670898438 L 0 0 Z" stroke="none" fill="#707070"/>
        </g>
        <path id="Path_571" data-name="Path 571" d="M-694.171,81.649l2.344-4.422h-25.008l2.215,2.232,57.727,58.165-.1.062-17.057,10.257-69.3-70.717h-18.16l22.267,22.722,4.388,4.479-96.211,98.144,5.549,5.462,41.853-42.459c3.94,6.662,11.974,20.264,21.009,35.654l-62.016,37.3-87.343-84.884,18.163-35.553,39.719-40.861h-10.857l-35.255,36.267-17.705,34.653c-4.216-4.375-10.335-12.427-10.188-21.269a22.086,22.086,0,0,1,2.752-10.559c11.662-22.031,11.794-22.95,13.664-26.679a19.572,19.572,0,0,0,1.441-8.165,32.909,32.909,0,0,0-.286-4.249h-7.881a23.258,23.258,0,0,1,.385,4.249,13.908,13.908,0,0,1-.624,4.684c-2.026,4.055-1.89,4.428-13.58,26.514a30.057,30.057,0,0,0-3.659,14.2c.213,13.93,9.486,24.1,14.278,28.509l-20.467,40.059-58.51-30.795,39.434-87.424h-11.383l-105.165,233.158v25.235l15.214-33.734,44.025,19.029-6.562,26.258-52.677,26.8v28.386l146.672-88.456,10.684-5.434,10.273,15.882-4.272,54-29.329-10.665L-946.373,375l31.355,11.4-1.683,21.249-161.04,4.01v12.981l159.894-3.983-7.859,83.071-152.035-41.424v8.066l173.487,47.265q-.653,5.314-1.285,10.489-.7,5.765-1.373,11.314c-2.448,20.248-4.536,38.069-5.931,50.948-3.377,31.276-11.024,60.669-17.837,82.157-3.405,10.75-6.593,19.526-8.923,25.587s-3.76,9.308-3.76,9.318-4.71,10.619-12.417,28.065l.2-1.565-122.156-15.205v7.845l55.961,6.967-2.348,65.756-53.613-12.263v7.985l87,19.906c-6.93,15.8-14.209,32.441-21.544,49.268l-39.963-20.252-3.522,6.942,40.368,20.462c-3.83,8.794-7.659,17.606-11.454,26.355l-50.884-22.125v8.483l17.4,7.568-10.9,26.976,7.214,2.914,10.828-26.783,23.246,10.1c-4.449,10.274-8.818,20.4-13.055,30.254h16.943c.366-.849.731-1.7,1.1-2.549l4.318,2.549h15.307l-16.518-9.753c11.239-26.038,23.17-53.442,34.594-79.566,5.518-12.618,10.916-24.932,16.066-36.66l56.275,12.859-10.5,100.994-60.592-31.375-2.379,4.611h-.005l62.53,32.378-.221,6.511h5.19l.131-3.869,7.472,3.869H-902l-18.472-9.565,4.806-46.188,84.622,41.141-5.14,14.611h5.492l4.338-12.332,25.366,12.332h11.866l-35.5-17.257,20.536-58.363,63.751,23.368-23.315,52.252h5.686l8.908-19.968,3.86,1.942,35.827,18.026h11.546L-743,912.375l-3.939-1.982,11.531-25.848,66.628,21.089-12.9,29.472h8.5L-661.315,908l15.306,4.847a225.038,225.038,0,0,1-6.711,22.263h8.237c2.383-6.981,4.405-13.687,5.911-19.912l5.578,1.766v-5.44l-26.231-8.3,9.646-22.033,16.584,5.829v-5.5l-14.5-5.095,11.883-27.143,2.614.961V819.623l-6.195,17.282-28.8-10.581,35-105.825V695.715l-42.3,127.927-10.35-3.8,24.7-70.805-7.352-2.559-24.656,70.68-9.7-3.56,5.818-163.2,63.84,24.084v-5.545l-63.645-24.009.01-.3,6.343-59.2.136-1.267-5.156-.552-.057.526-6.315,58.9-64.083-24.176,8.55-43.562-5.09-1v-.006l-10.17,51.817-48.983-15.8-.953-.134,7.269-43.6-5.121-.853-7.291,43.729-17.984-2.529.13-.595,6.061-46.764-5.138-.669-6.049,46.619-.147.684-25.1-3.53,7.884-45.592-5.113-.883-19.916,115.162-3.457,75.167-1.35,5.335-42.54-12.914c6.95-15.729,11.143-25.182,11.156-25.214.165-.446,24.647-56.25,31.752-121.659,1.361-12.574,3.4-29.958,5.787-49.751q.666-5.52,1.368-11.269.62-5.1,1.264-10.34c19.993,3.582,61.667,10.811,100.35,16.005,52.705,7.041,128.079,27.193,154.122,37.383l1.479.572v-8.332c-24.351-9.237-82.527-25.066-131.973-33.793l10.741-52.36L-781.505,477l10.3-34.437-.6-25.55,23.284-.577-8.376,50.26,7.679,1.28,8.622-51.737,40.78-1.018-29.747,106.852,7.5,2.088,30.385-109.142,29.038-.723-22.855,71.564-.056-.016-14.37,45.178-.411,1.284,0,0,0,.005,7.411,2.366,12.5-39.14,47.424,14.433v-8.134l-21.194-6.45-23.861-7.263.158-.495,3.054-9.559,20.432-63.982,21.412-.535V400.583l-5.743.144.468-15.022,1.614-4.434,3.661.679v-7.917l-.962-.179.962-2.646v-7.151l-5.017-1.821-.007-.006-8,21.994-.518,16.7-21.559.537-22.248-26.232,42.3-95.364,15.05,6.664v-8.512l-11.9-5.266,11.9-26.818v-19.2l-13.985,31.528-5.794-1.115,16.121-35.307-7.081-3.235-16.56,36.27-27.85-16.59-3.985,6.687L-663.549,262l-16.172,35.419c-13.258-8.066-30.992-20.763-37.486-33-4.21-7.755-12.729-22.566-22.152-38.754l78.787-45.348,27.578,28.252V189.994l-31.742-32.516,17.222-10.358,14.52,14.8V143.395l-3.029-3.089,3.029-1.781V123.478l-12.417,7.3Zm-293.387,726.03-29.957-6.854,1.12.04,2.371-66.344,55.624,6.925C-966.141,758.972-976.3,782.029-987.558,807.679Zm180.323,45.129-24.274-8.9-1.781,4.872,24.333,8.918-20.356,57.867-50.275-24.44,9.745-20.309-4.678-2.244-9.739,20.281L-915.1,873.866l5.192-49.893,16.359,7.854L-895.4,841.1a12.771,12.771,0,0,0-1.495,6.066c-.056,4.262,2.244,9.906,9.592,14.8,7,4.722,18.541,9.139,37.772,12.407l-7.847,27.475,4.988,1.426,8.625-30.186,16.411-40.033,5.138-12.536-.16-.065,23.606,8.294-4.434,12.6Zm-84.472-5.647a7.862,7.862,0,0,1,.511-2.812,7.249,7.249,0,0,1,.33-.74c.081-.142.091-.142.081-.142l.29-.441,3.477-17.38a39.8,39.8,0,0,1,5.513-7.554c6.567-7,14.109-8.951,21.154-9.014a43.541,43.541,0,0,1,13.981,2.494,42.662,42.662,0,0,1,5.8,2.455l.183.1,13.274,4.664-15.566,37.979L-847.86,869.4c-19.306-3.2-30.439-7.591-36.54-11.731C-890.7,853.328-891.656,849.669-891.707,847.161Zm153.537,30.962-64.2-23.531,4.066-11.559,4.421-12.564L-737.75,850.2l10.923,3.839ZM-841.64,764.687l9.091-46.329,39.11,19.358-17.543,38.021-.993,2.152-30.442-9.243Zm-4.941-1.78-.83,4.224-25.331-7.693,1.8-5.312,15.869-46.921,17.71,8.766Zm98.054-10.16,10.841-30.369,32.15,15.6.42-.863-1.248,35.025Zm41.963,25.012-1.133,31.785-60.121-18.251-14.394-4.369.212-.742,10.893-38.112Zm-46.7-27.191-16.319-7.507,10.373-31.125,16.827,8.165Zm-21.059-9.688-12.8-5.886,5.9-33.741,17.3,8.4Zm-17.66-8.229-39.53-19.568,6.408-32.651,2.162.575,36.867,17.89Zm-14.1,44.853,17.326-37.552,12.877,5.924-11.013,38.544-.284,1-19.786-6.008Zm21.889,16.954,63.738,19.352,10.992,3.337L-724.6,849.314l-10.9-3.832-56.786-19.956Zm117.5,106.4-66.534-21.06,11.315-24.029,64.964,22.831Zm23.758-54.271-11.926,27.245-64.829-22.783,13.11-27.837ZM-766.775,624.012l64.819,24.452-3,84.037-30.837-14.966,19.907-43.949-4.723-2.139h-.005l-19.846,43.822-16.892-8.2,20.7-44.7-4.705-2.182h-.006l-20.659,44.62-18.272-8.867,4.925-28.164Zm-56.486-8.72.664.094,49.12,15.846-5.181,26.393-50.736-5.551Zm-53.4-7.51,24.891,3.5-8.24,38.2,5.07,1.095,8.316-38.574,18.224,2.564-7.013,42.066,55.756,6.1-.8,4.095-4.683,26.75-35.965-17.455-64.4-17.17Zm-11.1,64.163,1.358-7.857,56.277,15-6.2,31.608-40.751-20.171-13.193,36.1Zm-3.464,75.323.355-7.72,1.234.451,15.443-42.256,14.421,7.139-16.061,47.483-1.883,5.567-12.887-3.914-2.164-.657Zm-3.451,13.646,1.714.521,103.81,31.517L-797.2,823.8l-41.105-14.448a50.841,50.841,0,0,0-22.043-5.467,33.293,33.293,0,0,0-23.021,8.75,41.513,41.513,0,0,0-8.379,10.825l-.192.35-.028.14L-908.6,815.97l2.739-10.83,3.9-15.416Zm-4.966-1.508-13.9,54.911-54.466-12.447c8.024-18.263,15.344-34.871,21.414-48.621,1.1-2.483,2.141-4.849,3.152-7.139Zm121.525-599.735,48.7-49.686,43.937,44.832-70.512,42.4C-766,180.162-774.786,165.3-778.118,159.671ZM-822,252.058l47.306,46.751-34.772,106.169L-850.573,406l3.7-44.366L-867.81,353.5c.866-6.709,1.411-10.915,1.533-11.862a57.585,57.585,0,0,0,.77-9.776,58.118,58.118,0,0,0-6.851-28.071c-1.7-3.065-5-8.747-9.212-15.906Zm-33.115,114.728L-858.4,406.2l-16.223.405c2.295-17.989,4.309-33.679,5.786-45.153Zm-60.607-205.892,84.152,81.78-56.591,34.031c-18.324-30.969-44.831-75.141-44.858-75.195l-1.123-1.867-1.084-.571Zm-143.6,133.9,52.284-115.92,46.611,24.531-54.908,110.4Zm43.454,47.7,4.611-18.449,17.11,7.4Zm78.544-39.963-47.807,24.325-23.046-9.962,54.635-109.869,8.29,4.362c3.435,5.729,14.29,23.837,25.9,43.3,5.465,9.161,11.1,18.631,16.2,27.237Zm34.032,207.306-14.789-4.03,8.072-85.344,17.99-.448C-895.6,448.179-899.633,480.164-903.293,509.838Zm12.929-102.843-18.516.461,6.737-85.113-11.269-17.419,18.328-9.324c4.219,7.179,7.5,12.831,9.121,15.743,3.909,7,4.9,14.894,4.887,20.515a46.651,46.651,0,0,1-.286,5.34c-.073.63-.142,1.1-.187,1.4s-.058.315-.053.315l-.056.269-.027.251C-881.689,339.444-885.416,368.19-890.364,406.994ZM-888,512.973c2.822-22.891,5.873-47.235,8.774-70.167,1-7.94,1.989-15.7,2.94-23.183l16.8-.418-8.107,97.348C-875.69,515.161-882.649,513.929-888,512.973Zm98.64-36.881-.233-.027-11.9,40.592-.048.157h0l-.007.02,7.459,2.212,0-.018.028-.09,10.276-34.362,20.214,2.351-9.086,44.3c-5.11-.838-10.1-1.593-14.918-2.242-25.068-3.359-51.461-7.593-72.331-11.123l8.235-98.855,58.315-1.454-2.453,21.1-9.635,32.778,7.469,2.2,9.821-33.411,2.657-22.861,5.268-.132.643.129.56,24.156Zm111.27-74.388-123.123,3.069,32.7-99.848,51.519,50.915ZM-656.1,264.429l5.886,1.131-17.214,38.806c-.892-.469-1.913-1.015-3.074-1.649-.77-.414-1.6-.865-2.465-1.352Zm-20.1,44.024c2.224,1.244,4.127,2.265,5.612,3.04l-25.341,57.137-5.038-5.94Zm-47.835-40.33c6.861,12.5,21.009,23.413,33.472,31.641,2.637,1.73,5.193,3.32,7.6,4.764l-23.565,51.6-4.748-5.6L-752.9,309.4l18.075-16.946-5.315-5.677-18.3,17.149-13.135-12.981,25.17-25.171-5.506-5.506-25.2,25.2-38-37.557,59.023-35.5c2.024,3.457,4.057,6.932,6.073,10.388L-771.212,235l3.885,6.748,21.224-12.216C-736.685,245.717-728.178,260.5-724.04,268.122Zm-19.241-49.194c-2.042-3.5-4.1-7.019-6.146-10.517l73.271-44.065,9.967,10.208Z" transform="translate(1077.741 -77.228)" fill="#fff" opacity="0.08"/>
        <ellipse id="Ellipse_164" data-name="Ellipse 164" cx="18.5" cy="19" rx="18.5" ry="19" transform="translate(233 152.422)" fill="#465484"/>
      </g>
      <g id="Mask_Group_52" data-name="Mask Group 52" transform="translate(-1 3.378)" clip-path="url(#clip-path-2)">
        <rect id="Rectangle_2867" data-name="Rectangle 2867" width="430" height="803" transform="translate(0 -41.951)" fill="url(#linear-gradient)"/>
      </g>
    </g>
  </g>
</svg>
