<svg xmlns="http://www.w3.org/2000/svg" width="143.715" height="96.115" viewBox="0 0 143.715 96.115">
  <g id="Group_1562" data-name="Group 1562" transform="translate(-337.68 -320.849)">
    <g id="Group_887" data-name="Group 887" transform="translate(314.676 316.389)">
      <g id="Group_798" data-name="Group 798">
        <path id="Path_506" data-name="Path 506" d="M57.05,0C88.557,0,114.1,2.709,114.1,6.052S88.557,12.1,57.05,12.1,0,9.394,0,6.052,25.542,0,57.05,0Z" transform="translate(40.816 88.472)" fill="#b1cee0" opacity="0.48"/>
        <g id="Group_1492" data-name="Group 1492" transform="translate(0 8.224)" opacity="0.22">
          <path id="Intersection_16" data-name="Intersection 16" d="M5881.7,9720.224a12.946,12.946,0,0,1-9.778-3.98,14.314,14.314,0,0,1-3.592-9.983v-19.28a14.312,14.312,0,0,1,3.6-9.985,12.95,12.95,0,0,1,9.768-3.98h19.165l-11.375,18.3v27.322l.995,1.585Z" transform="translate(-5845.324 -9658.936)" fill="#598fb1"/>
        </g>
        <g id="Group_1491" data-name="Group 1491" transform="translate(123.608 8.224)" opacity="0.31">
          <path id="Intersection_15" data-name="Intersection 15" d="M5741.35,9720.224v-47.21h14.2a12.959,12.959,0,0,1,9.78,3.98,14.322,14.322,0,0,1,3.595,9.985v19.28a14.314,14.314,0,0,1-3.595,9.983,12.953,12.953,0,0,1-9.783,3.98Z" transform="translate(-5725.814 -9658.936)" fill="#598fb1"/>
        </g>
        <g id="delivery-truck" transform="translate(40.816 4.66)">
          <g id="Group_99" data-name="Group 99" transform="translate(0 0)">
            <path id="Path_176" data-name="Path 176" d="M3.7,105.4h9.177v.493a16.692,16.692,0,0,0,33.383.062,14.1,14.1,0,0,0-.185-2.4H63.563c-.062.616-.123,1.293-.185,1.971a16.387,16.387,0,0,0,4.558,11.887,16.709,16.709,0,0,0,11.641,5.174h.431a16.564,16.564,0,0,0,16.691-16.2,18.136,18.136,0,0,0-.185-2.833h3.634a3.978,3.978,0,0,0,3.942-3.757V36.544a4.032,4.032,0,0,0-3.942-3.819H34.492a3.774,3.774,0,0,0-3.7,3.819V42.4l-17.308-.431a3.677,3.677,0,0,0-3.511,2.279L.308,67.463A3.654,3.654,0,0,0,0,68.88v32.829A3.706,3.706,0,0,0,3.7,105.4Zm3.7-7.391V77.072H30.18a2.1,2.1,0,0,0,.616-.062V89.267a9.109,9.109,0,0,0-1.293-.062,16.654,16.654,0,0,0-14.659,8.746H7.391ZM29.5,115.2a9.3,9.3,0,1,1,9.3-9.3A9.332,9.332,0,0,1,29.5,115.2Zm50.259,0A9.158,9.158,0,0,1,73.3,112.3a9.456,9.456,0,0,1-2.525-6.652,9.242,9.242,0,0,1,9.3-9.054h.246a9.3,9.3,0,0,1-.554,18.6ZM96.7,40.116V96.165H94.236a2.532,2.532,0,0,0-.678.061,20.02,20.02,0,0,0-1.417-1.786A16.454,16.454,0,0,0,80.5,89.267H80.07a16.3,16.3,0,0,0-13.55,6.9H42.992a16.686,16.686,0,0,0-4.8-4.5V40.116Zm-80.871,9.3,14.967.308V69.742a2.1,2.1,0,0,0-.616-.062H7.391v-.062Z" transform="translate(0 -32.725)" fill="#598fb1" stroke="#d9ebf6" stroke-width="0.4"/>
          </g>
        </g>
      </g>
    </g>
  </g>
</svg>
