<svg xmlns="http://www.w3.org/2000/svg" width="44" height="44" viewBox="0 0 44 44">
  <g id="Group_1748" data-name="Group 1748" transform="translate(-253.392 -244.375)">
    <g id="Group_1680" data-name="Group 1680" transform="translate(0 -79)">
      <g id="Group_1545" data-name="Group 1545" transform="translate(-273.608 -280.625)">
        <circle id="Ellipse_133" data-name="Ellipse 133" cx="22" cy="22" r="22" transform="translate(527 604)" fill="#d9ebf6"/>
      </g>
    </g>
    <g id="Group_1510" data-name="Group 1510" transform="translate(262.739 255.174)">
      <g id="Play" transform="translate(15.206)">
        <path id="Stroke_1" data-name="Stroke 1" d="M3.838,0A3.867,3.867,0,0,1,7.675,3.9a3.867,3.867,0,0,1-3.838,3.9A3.867,3.867,0,0,1,0,3.9,3.867,3.867,0,0,1,3.838,0Z" transform="translate(0.499 0.499)" fill="#598fb1"/>
        <path id="Stroke_1_-_Outline" data-name="Stroke 1 - Outline" d="M3.336-1A4.371,4.371,0,0,1,7.673,3.394,4.371,4.371,0,0,1,3.336,7.789,4.371,4.371,0,0,1-1,3.394,4.371,4.371,0,0,1,3.336-1Zm0,7.791a3.372,3.372,0,0,0,3.339-3.4A3.372,3.372,0,0,0,3.336,0,3.372,3.372,0,0,0,0,3.394,3.372,3.372,0,0,0,3.336,6.791Z" transform="translate(1 1)" fill="#598fb1"/>
      </g>
      <path id="Union_29" data-name="Union 29" d="M.944,5.025V4.676A1.07,1.07,0,0,1,0,3.687V3.475a.249.249,0,1,1,.5,0v.212a.555.555,0,0,0,.445.478V2.712L.561,2.559A.841.841,0,0,1,0,1.8V1.4A1.071,1.071,0,0,1,.944.413V.249a.249.249,0,0,1,.5,0V.411A1.075,1.075,0,0,1,2.4,1.4v.214a.249.249,0,0,1-.5,0V1.4a.559.559,0,0,0-.459-.48V2.374l.395.158a.838.838,0,0,1,.563.756v.4a1.073,1.073,0,0,1-.957.991v.347a.249.249,0,1,1-.5,0Zm.5-.857A.558.558,0,0,0,1.9,3.687v-.4a.349.349,0,0,0-.249-.293l-.21-.084ZM.5,1.4v.4A.346.346,0,0,0,.746,2.1l.2.079V.925A.555.555,0,0,0,.5,1.4Z" transform="translate(18.343 1.807)" fill="#fff"/>
      <g id="Play-2" data-name="Play" transform="translate(-0.25 5.619)">
        <path id="Stroke_1-2" data-name="Stroke 1" d="M7.462-1a8.308,8.308,0,0,1,3.3.676,8.427,8.427,0,0,1,2.69,1.841,8.686,8.686,0,0,1,1.812,9.4,8.561,8.561,0,0,1-1.812,2.728,8.428,8.428,0,0,1-2.69,1.841,8.379,8.379,0,0,1-6.593,0,8.428,8.428,0,0,1-2.69-1.841,8.686,8.686,0,0,1-1.812-9.4A8.561,8.561,0,0,1,1.476,1.516,8.427,8.427,0,0,1,4.165-.324,8.308,8.308,0,0,1,7.462-1Zm0,16.167a7.534,7.534,0,0,0,7.464-7.585A7.534,7.534,0,0,0,7.462,0,7.534,7.534,0,0,0,0,7.582,7.534,7.534,0,0,0,7.462,15.167Z" transform="translate(1.191 1.191)" fill="#598fb1"/>
        <path id="Stroke_1_-_Outline-2" data-name="Stroke 1 - Outline" d="M7.4-1.25a8.5,8.5,0,0,1,3.372.691,8.618,8.618,0,0,1,2.751,1.882,8.878,8.878,0,0,1,1.852,9.612,8.751,8.751,0,0,1-1.852,2.788,8.618,8.618,0,0,1-2.751,1.882,8.57,8.57,0,0,1-6.744,0,8.618,8.618,0,0,1-2.751-1.882A8.878,8.878,0,0,1-.571,4.112,8.751,8.751,0,0,1,1.281,1.323,8.618,8.618,0,0,1,4.031-.559,8.5,8.5,0,0,1,7.4-1.25Zm0,17.164a8.117,8.117,0,0,0,3.221-.66,8.237,8.237,0,0,0,2.629-1.8,8.495,8.495,0,0,0,1.771-9.2,8.37,8.37,0,0,0-1.771-2.667,8.237,8.237,0,0,0-2.629-1.8,8.187,8.187,0,0,0-6.442,0,8.237,8.237,0,0,0-2.629,1.8,8.495,8.495,0,0,0-1.771,9.2,8.37,8.37,0,0,0,1.771,2.667,8.237,8.237,0,0,0,2.629,1.8A8.117,8.117,0,0,0,7.4,15.914ZM7.4-.253a7.725,7.725,0,0,1,7.656,7.776A7.725,7.725,0,0,1,7.4,15.3,7.725,7.725,0,0,1-.253,7.524,7.725,7.725,0,0,1,7.4-.253Zm0,15.17a7.342,7.342,0,0,0,7.273-7.393A7.342,7.342,0,0,0,7.4.13,7.342,7.342,0,0,0,.13,7.524,7.342,7.342,0,0,0,7.4,14.917Z" transform="translate(1.25 1.25)" fill="#598fb1"/>
      </g>
      <path id="Union_30" data-name="Union 30" d="M1.5,7.869V7.623a2.117,2.117,0,0,1-.873-.41A1.607,1.607,0,0,1,0,5.966V5.628a.5.5,0,1,1,1,0v.338a.724.724,0,0,0,.5.614v-2.1L.957,4.266A1.435,1.435,0,0,1,0,2.969V2.333A1.61,1.61,0,0,1,.629,1.085,2.111,2.111,0,0,1,1.5.675V.5a.5.5,0,1,1,1,0V.671a2.119,2.119,0,0,1,.892.415A1.61,1.61,0,0,1,4.02,2.333V2.67a.5.5,0,1,1-1,0V2.333A.732.732,0,0,0,2.5,1.71v2.1l.563.225a1.436,1.436,0,0,1,.958,1.3v.635a1.607,1.607,0,0,1-.629,1.247,2.119,2.119,0,0,1-.892.414v.242a.5.5,0,1,1-1,0Zm1-1.28a.733.733,0,0,0,.524-.623V5.331a.454.454,0,0,0-.331-.372L2.5,4.882ZM1,2.333v.636a.453.453,0,0,0,.329.371l.175.07V1.718A.724.724,0,0,0,1,2.333Z" transform="translate(6.426 10.198)" fill="#598fb1"/>
      <g id="Play-3" data-name="Play" transform="translate(18.3 10.948)">
        <path id="Stroke_1-3" data-name="Stroke 1" d="M2.182-.5A2.7,2.7,0,0,1,4.863,2.216,2.7,2.7,0,0,1,2.182,4.933,2.7,2.7,0,0,1-.5,2.216,2.7,2.7,0,0,1,2.182-.5Zm0,4.667A1.936,1.936,0,0,0,4.1,2.216,1.936,1.936,0,0,0,2.182.265,1.936,1.936,0,0,0,.265,2.216,1.936,1.936,0,0,0,2.182,4.167Z" transform="translate(0.799 0.799)" fill="#598fb1"/>
        <path id="Stroke_1_-_Outline-3" data-name="Stroke 1 - Outline" d="M1.48-1.5a3,3,0,0,1,2.98,3.015A3,3,0,0,1,1.48,4.53,3,3,0,0,1-1.5,1.515,3,3,0,0,1,1.48-1.5Zm0,4.667A1.637,1.637,0,0,0,3.1,1.515,1.637,1.637,0,0,0,1.48-.137,1.637,1.637,0,0,0-.137,1.515,1.637,1.637,0,0,0,1.48,3.167Z" transform="translate(1.5 1.5)" fill="#598fb1"/>
      </g>
    </g>
  </g>
</svg>
