<?xml version="1.0" standalone="no"?>
<!DOCTYPE svg PUBLIC "-//W3C//DTD SVG 20010904//EN"
 "http://www.w3.org/TR/2001/REC-SVG-20010904/DTD/svg10.dtd">
<svg version="1.0" xmlns="http://www.w3.org/2000/svg"
 width="512.000000pt" height="512.000000pt" viewBox="0 0 512.000000 512.000000"
 preserveAspectRatio="xMidYMid meet">

<g transform="translate(0.000000,512.000000) scale(0.100000,-0.100000)"
fill="#000000" stroke="none">
<path d="M1555 4925 c-17 -9 -196 -181 -398 -383 l-367 -368 0 -1961 c0 -1417
3 -1969 11 -1986 6 -14 22 -30 36 -36 34 -16 3412 -16 3446 0 14 6 30 22 36
36 8 17 11 665 11 2342 0 2268 0 2319 -19 2342 l-19 24 -1354 2 c-1189 2
-1357 1 -1383 -12z m2630 -2365 l0 -2235 -1625 0 -1625 0 0 1875 0 1875 341 3
c332 2 342 3 360 23 18 20 19 44 22 360 l3 339 1262 -2 1262 -3 0 -2235z
m-2665 1895 l0 -235 -242 0 -243 0 235 235 c129 129 238 235 242 235 5 0 8
-106 8 -235z"/>
<path d="M2000 4200 c-26 -26 -26 -81 -2 -103 17 -15 70 -17 564 -17 515 0
546 1 561 18 23 25 21 78 -3 102 -20 20 -33 20 -560 20 -527 0 -540 0 -560
-20z"/>
<path d="M1440 3730 c-27 -27 -26 -81 1 -106 20 -18 55 -19 1108 -22 762 -2
1094 1 1112 9 26 10 49 46 49 75 0 8 -11 26 -25 39 l-24 25 -1101 0 c-1087 0
-1100 0 -1120 -20z"/>
<path d="M1435 3255 c-30 -30 -31 -54 -4 -89 l20 -26 1109 0 1109 0 20 26 c27
35 26 59 -4 89 l-24 25 -1101 0 -1101 0 -24 -25z"/>
<path d="M1431 2784 c-12 -15 -21 -34 -21 -44 0 -10 9 -29 21 -44 l20 -26
1109 0 1109 0 20 26 c26 34 26 54 0 88 l-20 26 -1109 0 -1109 0 -20 -26z"/>
<path d="M2055 2395 l-25 -24 0 -700 c0 -499 3 -707 11 -725 19 -41 53 -48
229 -44 156 3 162 4 181 27 18 22 19 49 19 735 l0 713 -23 21 c-22 21 -32 22
-196 22 -169 0 -172 0 -196 -25z m275 -735 l0 -621 -77 3 -78 3 -3 618 -2 617
80 0 80 0 0 -620z"/>
<path d="M3292 2397 l-22 -23 0 -711 c0 -685 1 -712 19 -734 19 -24 22 -24
194 -24 158 0 177 2 196 19 21 19 21 20 21 742 l0 723 -22 15 c-18 13 -55 16
-193 16 -166 0 -172 -1 -193 -23z m276 -734 l-3 -618 -75 0 -75 0 -3 618 -2
617 80 0 80 0 -2 -617z"/>
<path d="M1431 1864 c-21 -26 -21 -37 -21 -460 0 -296 4 -441 11 -457 18 -40
49 -47 209 -47 160 0 191 7 209 47 7 16 11 163 11 463 0 427 -1 441 -20 460
-19 19 -33 20 -199 20 l-180 0 -20 -26z m279 -469 l0 -355 -75 0 -75 0 0 355
0 355 75 0 75 0 0 -355z"/>
<path d="M2670 1870 c-19 -19 -20 -33 -20 -469 0 -427 1 -450 19 -472 19 -24
22 -24 194 -24 158 0 177 2 196 19 21 19 21 24 21 476 0 430 -1 458 -18 473
-16 15 -45 17 -195 17 -164 0 -179 -2 -197 -20z m278 -472 l-3 -353 -75 0 -75
0 -3 353 -2 352 80 0 80 0 -2 -352z"/>
</g>
</svg>
