<svg id="Search" xmlns="http://www.w3.org/2000/svg" width="15.964" height="16.317" viewBox="0 0 15.964 16.317">
  <path id="Ellipse_739" d="M6.929-.75A7.679,7.679,0,1,1-.75,6.929,7.687,7.687,0,0,1,6.929-.75Zm0,13.857A6.179,6.179,0,1,0,.75,6.929,6.186,6.186,0,0,0,6.929,13.107Z" transform="translate(0.75 0.75)" fill="#111"/>
  <path id="Line_181" d="M2.716,3.459a.748.748,0,0,1-.53-.219L-.53.531a.75.75,0,0,1,0-1.061.75.75,0,0,1,1.061,0L3.246,2.178a.75.75,0,0,1-.53,1.281Z" transform="translate(12.498 12.858)" fill="#111"/>
</svg>
