<svg xmlns="http://www.w3.org/2000/svg" width="37" height="37" viewBox="0 0 37 37">
  <g id="Group_1656" data-name="Group 1656" transform="translate(-1024 -565)">
    <circle id="Ellipse_140" data-name="Ellipse 140" cx="18.5" cy="18.5" r="18.5" transform="translate(1024 565)" fill="#d9ebf6"/>
    <path id="Send" d="M12.172,18.75a1.893,1.893,0,0,1-1.633-.93l-3.9-6.454L.168,7.38a1.932,1.932,0,0,1,.47-3.5L16.293-.673a1.926,1.926,0,0,1,2.375,2.406L14.023,17.372a1.9,1.9,0,0,1-1.6,1.363A1.99,1.99,0,0,1,12.172,18.75ZM8.136,10.936l3.687,6.109a.406.406,0,0,0,.411.2.41.41,0,0,0,.351-.3L17.23,1.305a.424.424,0,0,0-.106-.429.41.41,0,0,0-.413-.108L1.056,5.323a.414.414,0,0,0-.3.354.419.419,0,0,0,.2.426l6.125,3.77,5.245-5.28A.75.75,0,1,1,13.387,5.65Z" transform="translate(1033 575.749)" fill="#598fb1"/>
  </g>
</svg>
