<svg xmlns="http://www.w3.org/2000/svg" width="33.275" height="33.275" viewBox="0 0 33.275 33.275">
  <g id="Group_1644" data-name="Group 1644" transform="translate(-907 -690)">
    <g id="Group_1544" data-name="Group 1544" transform="translate(598.742 453)">
      <circle id="Ellipse_42" data-name="Ellipse 42" cx="16.637" cy="16.637" r="16.637" transform="translate(308.258 237)" fill="#d9ebf6"/>
    </g>
    <path id="Star" d="M7.336-.75A1.373,1.373,0,0,1,7.95-.6a1.39,1.39,0,0,1,.608.6l.006.012,1.76,3.54,3.933.568a1.359,1.359,0,0,1,.9.522,1.34,1.34,0,0,1-.143,1.8l-2.844,2.75.683,3.889,0,.02a1.363,1.363,0,0,1-1.126,1.54h-.006a1.433,1.433,0,0,1-.845-.131l-.016-.008L7.354,12.657,3.82,14.506l-.007,0a1.377,1.377,0,0,1-1.828-.559l-.008-.016a1.374,1.374,0,0,1-.139-.857V13.07l.682-3.888L-.34,6.43l-.009-.009a1.357,1.357,0,0,1-.028-1.9l.029-.031.023-.022A1.452,1.452,0,0,1,.4,4.117l.024,0,3.936-.569L6.116.007A1.361,1.361,0,0,1,7.336-.75ZM13.76,5.558l-3.721-.538A1.367,1.367,0,0,1,9.01,4.273L7.34.914,5.671,4.272a1.383,1.383,0,0,1-1.018.745l-.01,0L.916,5.557l2.7,2.6a1.359,1.359,0,0,1,.393,1.211l-.647,3.684L6.716,11.3a1.349,1.349,0,0,1,1.277,0l3.329,1.745-.644-3.667a1.333,1.333,0,0,1,.394-1.218Z" transform="translate(916.5 699.5)" fill="#598fb1"/>
  </g>
</svg>
