<svg xmlns="http://www.w3.org/2000/svg" width="16.85" height="14.547" viewBox="0 0 16.85 14.547">
  <g id="delivery-truck" transform="translate(0 0)">
    <g id="Group_99" data-name="Group 99" transform="translate(0 0)">
      <path id="Path_176" data-name="Path 176" d="M.6,44.49H2.084v.08a2.7,2.7,0,0,0,5.4.01,2.282,2.282,0,0,0-.03-.389H10.29c-.01.1-.02.209-.03.319A2.653,2.653,0,0,0,11,46.435a2.7,2.7,0,0,0,1.884.838h.07a2.681,2.681,0,0,0,2.7-2.622,2.936,2.936,0,0,0-.03-.459h.588a.644.644,0,0,0,.638-.608V33.343a.653.653,0,0,0-.638-.618H5.584a.611.611,0,0,0-.6.618v.947l-2.8-.07a.6.6,0,0,0-.568.369L.05,38.348a.591.591,0,0,0-.05.229v5.314A.6.6,0,0,0,.6,44.49Zm.6-1.2V39.9H4.886a.339.339,0,0,0,.1-.01v1.984a1.475,1.475,0,0,0-.209-.01A2.7,2.7,0,0,0,2.4,43.284H1.2Zm3.579,2.782A1.506,1.506,0,1,1,6.282,44.57,1.511,1.511,0,0,1,4.776,46.076Zm8.136,0a1.483,1.483,0,0,1-1.047-.469,1.531,1.531,0,0,1-.409-1.077,1.5,1.5,0,0,1,1.506-1.466H13a1.506,1.506,0,0,1-.09,3.011Zm2.742-12.154v9.073h-.4a.41.41,0,0,0-.11.01,3.241,3.241,0,0,0-.229-.289,2.664,2.664,0,0,0-1.884-.838h-.07a2.639,2.639,0,0,0-2.194,1.117H6.96a2.7,2.7,0,0,0-.778-.728V33.921ZM2.562,35.427l2.423.05v3.24a.339.339,0,0,0-.1-.01H1.2V38.7Z" transform="translate(0 -32.725)" fill="#598fb1"/>
    </g>
  </g>
</svg>
