<svg xmlns="http://www.w3.org/2000/svg" width="44" height="44" viewBox="0 0 44 44">
  <g id="Group_1647" data-name="Group 1647" transform="translate(-253.392 -398.375)">
    <g id="Group_1546" data-name="Group 1546" transform="translate(-273.608 -205.625)">
      <circle id="Ellipse_133" data-name="Ellipse 133" cx="22" cy="22" r="22" transform="translate(527 604)" fill="#d9ebf6"/>
    </g>
    <g id="delivery-truck" transform="translate(262.63 410.614)">
      <g id="Group_99" data-name="Group 99" transform="translate(0 0)">
        <path id="Path_176" data-name="Path 176" d="M.828,49H2.883v.11a3.738,3.738,0,0,0,7.476.014,3.157,3.157,0,0,0-.041-.538h3.917c-.014.138-.028.29-.041.441a3.67,3.67,0,0,0,1.021,2.662,3.742,3.742,0,0,0,2.607,1.159h.1a3.709,3.709,0,0,0,3.738-3.628,4.061,4.061,0,0,0-.041-.634h.814a.891.891,0,0,0,.883-.841V33.58a.9.9,0,0,0-.883-.855H7.724a.845.845,0,0,0-.828.855v1.31l-3.876-.1a.824.824,0,0,0-.786.51L.069,40.5A.818.818,0,0,0,0,40.822v7.352A.83.83,0,0,0,.828,49Zm.828-1.655v-4.69h5.1a.47.47,0,0,0,.138-.014v2.745a2.04,2.04,0,0,0-.29-.014,3.73,3.73,0,0,0-3.283,1.959H1.655Zm4.952,3.848A2.083,2.083,0,1,1,8.69,49.111,2.09,2.09,0,0,1,6.607,51.194Zm11.255,0a2.051,2.051,0,0,1-1.448-.648,2.118,2.118,0,0,1-.566-1.49,2.07,2.07,0,0,1,2.083-2.028h.055a2.084,2.084,0,0,1-.124,4.166ZM21.655,34.38V46.932H21.1a.567.567,0,0,0-.152.014,4.484,4.484,0,0,0-.317-.4,3.685,3.685,0,0,0-2.607-1.159h-.1A3.65,3.65,0,0,0,14.9,46.932H9.628a3.737,3.737,0,0,0-1.076-1.007V34.38ZM3.545,36.463l3.352.069v4.483A.47.47,0,0,0,6.759,41h-5.1v-.014Z" transform="translate(0 -32.725)" fill="#598fb1" stroke="#d9ebf6" stroke-width="0.4"/>
      </g>
    </g>
  </g>
</svg>
