<svg xmlns="http://www.w3.org/2000/svg" width="44" height="44" viewBox="0 0 44 44">
  <g id="Group_1646" data-name="Group 1646" transform="translate(-253.392 -323.375)">
    <g id="Group_1545" data-name="Group 1545" transform="translate(-273.608 -280.625)">
      <circle id="Ellipse_133" data-name="Ellipse 133" cx="22" cy="22" r="22" transform="translate(527 604)" fill="#d9ebf6"/>
    </g>
    <g id="Bag" transform="translate(265.547 335.472)">
      <path id="Path_33955" d="M13.213,15.432H4.865c-2.143,0-3.637-.524-4.566-1.6S-.945,11.124-.628,9.006q0-.017.006-.034L1.155-.065a4.8,4.8,0,0,1,1.469-2.8A3.566,3.566,0,0,1,4.968-3.75h8.178a3.488,3.488,0,0,1,2.336.921A5.129,5.129,0,0,1,16.954-.086l0,.017,1.778,9.041q0,.019.006.038a5.66,5.66,0,0,1-1.053,4.7A5.7,5.7,0,0,1,13.213,15.432ZM.853,9.244C.607,10.9.8,12.116,1.435,12.85s1.749,1.082,3.429,1.082h8.348a4.392,4.392,0,0,0,3.344-1.208,4.245,4.245,0,0,0,.7-3.482L15.488.229c-.344-1.552-1.219-2.479-2.341-2.479H4.968c-.442,0-1.915.178-2.338,2.462l0,.008Z" transform="translate(0.801 5.318)" fill="#598fb1"/>
      <path id="Path_33956" d="M4.54,3.015a.75.75,0,0,1-.75-.75,1.52,1.52,0,0,0-3.04,0,.75.75,0,0,1-.75.75.75.75,0,0,1-.75-.75,3.02,3.02,0,0,1,6.04,0A.75.75,0,0,1,4.54,3.015Z" transform="translate(7.552 -0.194)" fill="#598fb1"/>
      <path id="Path_554" data-name="Path 554" d="M-2158.608-4367.671a.5.5,0,0,1-.5-.5v-5.215a.5.5,0,0,1,.5-.5.5.5,0,0,1,.5.5v5.215A.5.5,0,0,1-2158.608-4367.671Z" transform="translate(2168.561 4381.903)" fill="#598fb1"/>
      <g id="Group_1645" data-name="Group 1645" transform="translate(-265.547 -224.097)">
        <path id="Intersection_17" data-name="Intersection 17" d="M786.145,159.125h1.064a2.5,2.5,0,0,0,4.582,0h1.064a3.5,3.5,0,0,1-6.71,0Z" transform="translate(-514 76.375)" fill="#598fb1"/>
      </g>
    </g>
  </g>
</svg>
